  0
SECTION
  2
ENTITIES
   0
POLYLINE
  8
FRAME
 66
      1
 70
1
  0
VERTEX
  8
FRAME
 10
0.000000
 20
0.000000
  0
VERTEX
  8
FRAME
 10
0.000000
 20
4.570000
  0
VERTEX
  8
FRAME
 10
4.570000
 20
4.570000
  0
VERTEX
  8
FRAME
 10
4.570000
 20
0.000000
  0
SEQEND
  8
FRAME
  0
TEXT
  8
FRAME
  62
2
 10
0.000000
 20
0.000000
 40
0.114250
  1
(0.0m,0.0m)
 50
0.000000
  0
TEXT
  8
FRAME
  62
2
 10
4.570000
 20
4.570000
 40
0.114250
  1
(4.6m,4.6m)
 50
0.000000
  0
POLYLINE
  8
FRAME
 66
      1
  62
230
 70
0
 40
 0.030000
 41
 0.030000
  0
VERTEX
  8
FRAME
 10
0.320000
 20
0.507778
  0
VERTEX
  8
FRAME
 10
0.365000
 20
0.507778
  0
VERTEX
  8
FRAME
 10
0.410000
 20
2.031111
  0
SEQEND
  8
FRAME
  0
TEXT
  8
FRAME
  62
2
 10
0.320000
 20
0.507778
 40
0.114250
  1
0.1m
 50
0.000000
  0
TEXT
  8
FRAME
  62
2
 10
0.365000
 20
0.507778
 40
0.114250
  1
0.1m
 50
0.000000
  0
TEXT
  8
FRAME
  62
2
 10
0.410000
 20
2.031111
 40
0.114250
  1
0.1m
 50
0.000000
  0
POLYLINE
  8
FRAME
 66
      1
  62
230
 70
0
 40
 0.030000
 41
 0.030000
  0
VERTEX
  8
FRAME
 10
0.507778
 20
0.245000
  0
VERTEX
  8
FRAME
 10
0.675000
 20
0.507778
  0
VERTEX
  8
FRAME
 10
0.705000
 20
1.015556
  0
VERTEX
  8
FRAME
 10
0.715000
 20
1.523333
  0
VERTEX
  8
FRAME
 10
0.710000
 20
2.031111
  0
VERTEX
  8
FRAME
 10
0.655000
 20
2.538889
  0
VERTEX
  8
FRAME
 10
0.660000
 20
2.538889
  0
VERTEX
  8
FRAME
 10
0.720000
 20
3.046667
  0
VERTEX
  8
FRAME
 10
0.695000
 20
3.554445
  0
SEQEND
  8
FRAME
  0
TEXT
  8
FRAME
  62
2
 10
0.507778
 20
0.245000
 40
0.114250
  1
0.1m
 50
0.000000
  0
TEXT
  8
FRAME
  62
2
 10
0.675000
 20
0.507778
 40
0.114250
  1
0.1m
 50
0.000000
  0
TEXT
  8
FRAME
  62
2
 10
0.705000
 20
1.015556
 40
0.114250
  1
0.0m
 50
0.000000
  0
TEXT
  8
FRAME
  62
2
 10
0.715000
 20
1.523333
 40
0.114250
  1
0.1m
 50
0.000000
  0
TEXT
  8
FRAME
  62
2
 10
0.710000
 20
2.031111
 40
0.114250
  1
0.1m
 50
0.000000
  0
TEXT
  8
FRAME
  62
2
 10
0.655000
 20
2.538889
 40
0.114250
  1
0.1m
 50
0.000000
  0
TEXT
  8
FRAME
  62
2
 10
0.660000
 20
2.538889
 40
0.114250
  1
0.1m
 50
0.000000
  0
TEXT
  8
FRAME
  62
2
 10
0.720000
 20
3.046667
 40
0.114250
  1
0.1m
 50
0.000000
  0
TEXT
  8
FRAME
  62
2
 10
0.695000
 20
3.554445
 40
0.114250
  1
0.1m
 50
0.000000
  0
POLYLINE
  8
FRAME
 66
      1
  62
230
 70
0
 40
 0.030000
 41
 0.030000
  0
VERTEX
  8
FRAME
 10
4.170000
 20
4.062222
  0
VERTEX
  8
FRAME
 10
4.062222
 20
0.220000
  0
SEQEND
  8
FRAME
  0
TEXT
  8
FRAME
  62
2
 10
4.170000
 20
4.062222
 40
0.114250
  1
0.0m
 50
0.000000
  0
TEXT
  8
FRAME
  62
2
 10
4.062222
 20
0.220000
 40
0.114250
  1
0.1m
 50
0.000000
  0
ENDSEC
  0
EOF
 