  0
SECTION
  2
ENTITIES
   0
POLYLINE
  8
FRAME
 66
      1
 70
1
  0
VERTEX
  8
FRAME
 10
0.000000
 20
0.000000
  0
VERTEX
  8
FRAME
 10
0.000000
 20
1.200000
  0
VERTEX
  8
FRAME
 10
1.200000
 20
1.200000
  0
VERTEX
  8
FRAME
 10
1.200000
 20
0.000000
  0
SEQEND
  8
FRAME
  0
TEXT
  8
FRAME
  62
2
 10
0.000000
 20
0.000000
 40
0.030000
  1
(0.0m,0.0m)
 50
0.000000
  0
TEXT
  8
FRAME
  62
2
 10
1.200000
 20
1.200000
 40
0.030000
  1
(1.2m,1.2m)
 50
0.000000
  0
POLYLINE
  8
FRAME
 66
      1
  62
1
 70
0
 40
 0.000000
 41
 0.000000
  0
VERTEX
  8
FRAME
 10
0.694476
 20
0.000000
  0
VERTEX
  8
FRAME
 10
0.717500
 20
0.750000
  0
VERTEX
  8
FRAME
 10
0.729514
 20
0.850000
  0
VERTEX
  8
FRAME
 10
0.718251
 20
1.200000
  0
SEQEND
  8
FRAME
  0
TEXT
  8
FRAME
  62
2
 10
0.694476
 20
0.000000
 40
0.030000
  1
0.1m
 50
0.000000
  0
TEXT
  8
FRAME
  62
2
 10
0.717500
 20
0.750000
 40
0.030000
  1
0.1m
 50
0.000000
  0
TEXT
  8
FRAME
  62
2
 10
0.729514
 20
0.850000
 40
0.030000
  1
0.1m
 50
0.000000
  0
TEXT
  8
FRAME
  62
2
 10
0.718251
 20
1.200000
 40
0.030000
  1
0.1m
 50
0.000000
  0
POLYLINE
  8
FRAME
 66
      1
  62
1
 70
0
 40
 0.000000
 41
 0.000000
  0
VERTEX
  8
FRAME
 10
0.890932
 20
0.000000
  0
VERTEX
  8
FRAME
 10
0.931250
 20
0.750000
  0
SEQEND
  8
FRAME
  0
TEXT
  8
FRAME
  62
2
 10
0.890932
 20
0.000000
 40
0.030000
  1
0.1m
 50
0.000000
  0
TEXT
  8
FRAME
  62
2
 10
0.931250
 20
0.750000
 40
0.030000
  1
0.1m
 50
0.000000
  0
POLYLINE
  8
FRAME
 66
      1
  62
1
 70
0
 40
 0.000000
 41
 0.000000
  0
VERTEX
  8
FRAME
 10
0.495518
 20
0.000000
  0
VERTEX
  8
FRAME
 10
0.540000
 20
0.750000
  0
SEQEND
  8
FRAME
  0
TEXT
  8
FRAME
  62
2
 10
0.495518
 20
0.000000
 40
0.030000
  1
0.1m
 50
0.000000
  0
TEXT
  8
FRAME
  62
2
 10
0.540000
 20
0.750000
 40
0.030000
  1
0.1m
 50
0.000000
  0
CIRCLE
  8
FRAME
  62
1
 10
0.100000
 20
0.011250
 30
-0.134700
 40
0.012000
 210
0.000000
 220
0.000000
 230
1.000000
  0
TEXT
  8
FRAME
  62
2
 10
0.100000
 20
0.011250
 40
0.030000
  1
0.1m
 50
0.000000
  0
POLYLINE
  8
FRAME
 66
      1
  62
1
 70
0
 40
 0.000000
 41
 0.000000
  0
VERTEX
  8
FRAME
 10
1.004799
 20
0.200000
  0
VERTEX
  8
FRAME
 10
0.963750
 20
0.750000
  0
VERTEX
  8
FRAME
 10
0.989781
 20
1.050000
  0
VERTEX
  8
FRAME
 10
0.989784
 20
1.200000
  0
SEQEND
  8
FRAME
  0
TEXT
  8
FRAME
  62
2
 10
1.004799
 20
0.200000
 40
0.030000
  1
0.1m
 50
0.000000
  0
TEXT
  8
FRAME
  62
2
 10
0.963750
 20
0.750000
 40
0.030000
  1
0.1m
 50
0.000000
  0
TEXT
  8
FRAME
  62
2
 10
0.989781
 20
1.050000
 40
0.030000
  1
0.1m
 50
0.000000
  0
TEXT
  8
FRAME
  62
2
 10
0.989784
 20
1.200000
 40
0.030000
  1
0.1m
 50
0.000000
  0
POLYLINE
  8
FRAME
 66
      1
  62
1
 70
0
 40
 0.000000
 41
 0.000000
  0
VERTEX
  8
FRAME
 10
0.316581
 20
0.000000
  0
VERTEX
  8
FRAME
 10
0.350000
 20
0.706987
  0
SEQEND
  8
FRAME
  0
TEXT
  8
FRAME
  62
2
 10
0.316581
 20
0.000000
 40
0.030000
  1
0.1m
 50
0.000000
  0
TEXT
  8
FRAME
  62
2
 10
0.350000
 20
0.706987
 40
0.030000
  1
0.1m
 50
0.000000
  0
POLYLINE
  8
FRAME
 66
      1
  62
1
 70
0
 40
 0.000000
 41
 0.000000
  0
VERTEX
  8
FRAME
 10
0.235246
 20
0.200000
  0
VERTEX
  8
FRAME
 10
0.217728
 20
1.200000
  0
SEQEND
  8
FRAME
  0
TEXT
  8
FRAME
  62
2
 10
0.235246
 20
0.200000
 40
0.030000
  1
0.1m
 50
0.000000
  0
TEXT
  8
FRAME
  62
2
 10
0.217728
 20
1.200000
 40
0.030000
  1
0.1m
 50
0.000000
  0
POLYLINE
  8
FRAME
 66
      1
  62
1
 70
0
 40
 0.000000
 41
 0.000000
  0
VERTEX
  8
FRAME
 10
0.100000
 20
0.005000
  0
VERTEX
  8
FRAME
 10
0.138750
 20
0.750000
  0
SEQEND
  8
FRAME
  0
TEXT
  8
FRAME
  62
2
 10
0.100000
 20
0.005000
 40
0.030000
  1
0.1m
 50
0.000000
  0
TEXT
  8
FRAME
  62
2
 10
0.138750
 20
0.750000
 40
0.030000
  1
0.1m
 50
0.000000
  0
POLYLINE
  8
FRAME
 66
      1
  62
1
 70
0
 40
 0.000000
 41
 0.000000
  0
VERTEX
  8
FRAME
 10
0.450000
 20
0.266528
  0
VERTEX
  8
FRAME
 10
0.427947
 20
1.200000
  0
SEQEND
  8
FRAME
  0
TEXT
  8
FRAME
  62
2
 10
0.450000
 20
0.266528
 40
0.030000
  1
0.1m
 50
0.000000
  0
TEXT
  8
FRAME
  62
2
 10
0.427947
 20
1.200000
 40
0.030000
  1
0.1m
 50
0.000000
  0
POLYLINE
  8
FRAME
 66
      1
  62
1
 70
0
 40
 0.000000
 41
 0.000000
  0
VERTEX
  8
FRAME
 10
1.092393
 20
0.000000
  0
VERTEX
  8
FRAME
 10
1.100000
 20
0.733266
  0
SEQEND
  8
FRAME
  0
TEXT
  8
FRAME
  62
2
 10
1.092393
 20
0.000000
 40
0.030000
  1
0.1m
 50
0.000000
  0
TEXT
  8
FRAME
  62
2
 10
1.100000
 20
0.733266
 40
0.030000
  1
0.2m
 50
0.000000
  0
POLYLINE
  8
FRAME
 66
      1
  62
1
 70
0
 40
 0.000000
 41
 0.000000
  0
VERTEX
  8
FRAME
 10
0.802089
 20
0.000000
  0
VERTEX
  8
FRAME
 10
0.797080
 20
0.550000
  0
SEQEND
  8
FRAME
  0
TEXT
  8
FRAME
  62
2
 10
0.802089
 20
0.000000
 40
0.030000
  1
0.1m
 50
0.000000
  0
TEXT
  8
FRAME
  62
2
 10
0.797080
 20
0.550000
 40
0.030000
  1
0.2m
 50
0.000000
  0
POLYLINE
  8
FRAME
 66
      1
  62
1
 70
0
 40
 0.000000
 41
 0.000000
  0
VERTEX
  8
FRAME
 10
0.401670
 20
0.000000
  0
VERTEX
  8
FRAME
 10
0.414181
 20
0.350000
  0
VERTEX
  8
FRAME
 10
0.390407
 20
0.550000
  0
SEQEND
  8
FRAME
  0
TEXT
  8
FRAME
  62
2
 10
0.401670
 20
0.000000
 40
0.030000
  1
0.2m
 50
0.000000
  0
TEXT
  8
FRAME
  62
2
 10
0.414181
 20
0.350000
 40
0.030000
  1
0.2m
 50
0.000000
  0
TEXT
  8
FRAME
  62
2
 10
0.390407
 20
0.550000
 40
0.030000
  1
0.2m
 50
0.000000
  0
CIRCLE
  8
FRAME
  62
1
 10
0.000000
 20
0.962253
 30
-0.151537
 40
0.012000
 210
0.000000
 220
0.000000
 230
1.000000
  0
TEXT
  8
FRAME
  62
2
 10
0.000000
 20
0.962253
 40
0.030000
  1
0.2m
 50
0.000000
  0
POLYLINE
  8
FRAME
 66
      1
  62
1
 70
0
 40
 0.000000
 41
 0.000000
  0
VERTEX
  8
FRAME
 10
0.000000
 20
0.561836
  0
VERTEX
  8
FRAME
 10
0.000000
 20
0.565590
  0
VERTEX
  8
FRAME
 10
1.150000
 20
0.561835
  0
SEQEND
  8
FRAME
  0
TEXT
  8
FRAME
  62
2
 10
0.000000
 20
0.561836
 40
0.030000
  1
0.1m
 50
0.000000
  0
TEXT
  8
FRAME
  62
2
 10
0.000000
 20
0.565590
 40
0.030000
  1
0.1m
 50
0.000000
  0
TEXT
  8
FRAME
  62
2
 10
1.150000
 20
0.561835
 40
0.030000
  1
0.1m
 50
0.000000
  0
POLYLINE
  8
FRAME
 66
      1
  62
1
 70
0
 40
 0.000000
 41
 0.000000
  0
VERTEX
  8
FRAME
 10
0.003750
 20
0.750000
  0
VERTEX
  8
FRAME
 10
1.150000
 20
0.758290
  0
SEQEND
  8
FRAME
  0
TEXT
  8
FRAME
  62
2
 10
0.003750
 20
0.750000
 40
0.030000
  1
0.1m
 50
0.000000
  0
TEXT
  8
FRAME
  62
2
 10
1.150000
 20
0.758290
 40
0.030000
  1
0.2m
 50
0.000000
  0
POLYLINE
  8
FRAME
 66
      1
  62
1
 70
0
 40
 0.000000
 41
 0.000000
  0
VERTEX
  8
FRAME
 10
0.000000
 20
0.955997
  0
VERTEX
  8
FRAME
 10
1.150000
 20
0.945985
  0
SEQEND
  8
FRAME
  0
TEXT
  8
FRAME
  62
2
 10
0.000000
 20
0.955997
 40
0.030000
  1
0.1m
 50
0.000000
  0
TEXT
  8
FRAME
  62
2
 10
1.150000
 20
0.945985
 40
0.030000
  1
0.2m
 50
0.000000
  0
POLYLINE
  8
FRAME
 66
      1
  62
1
 70
0
 40
 0.000000
 41
 0.000000
  0
VERTEX
  8
FRAME
 10
0.003754
 20
1.100000
  0
VERTEX
  8
FRAME
 10
1.150000
 20
1.118665
  0
SEQEND
  8
FRAME
  0
TEXT
  8
FRAME
  62
2
 10
0.003754
 20
1.100000
 40
0.030000
  1
0.1m
 50
0.000000
  0
TEXT
  8
FRAME
  62
2
 10
1.150000
 20
1.118665
 40
0.030000
  1
0.2m
 50
0.000000
  0
POLYLINE
  8
FRAME
 66
      1
  62
1
 70
0
 40
 0.000000
 41
 0.000000
  0
VERTEX
  8
FRAME
 10
0.007508
 20
0.350000
  0
VERTEX
  8
FRAME
 10
1.200000
 20
0.344109
  0
SEQEND
  8
FRAME
  0
TEXT
  8
FRAME
  62
2
 10
0.007508
 20
0.350000
 40
0.030000
  1
0.2m
 50
0.000000
  0
TEXT
  8
FRAME
  62
2
 10
1.200000
 20
0.344109
 40
0.030000
  1
0.1m
 50
0.000000
  0
POLYLINE
  8
FRAME
 66
      1
  62
1
 70
0
 40
 0.000000
 41
 0.000000
  0
VERTEX
  8
FRAME
 10
0.000000
 20
0.508030
  0
VERTEX
  8
FRAME
 10
1.200000
 20
0.471742
  0
SEQEND
  8
FRAME
  0
TEXT
  8
FRAME
  62
2
 10
0.000000
 20
0.508030
 40
0.030000
  1
0.1m
 50
0.000000
  0
TEXT
  8
FRAME
  62
2
 10
1.200000
 20
0.471742
 40
0.030000
  1
0.1m
 50
0.000000
  0
POLYLINE
  8
FRAME
 66
      1
  62
1
 70
0
 40
 0.000000
 41
 0.000000
  0
VERTEX
  8
FRAME
 10
0.003754
 20
0.300000
  0
VERTEX
  8
FRAME
 10
1.200000
 20
0.274036
  0
SEQEND
  8
FRAME
  0
TEXT
  8
FRAME
  62
2
 10
0.003754
 20
0.300000
 40
0.030000
  1
0.1m
 50
0.000000
  0
TEXT
  8
FRAME
  62
2
 10
1.200000
 20
0.274036
 40
0.030000
  1
0.1m
 50
0.000000
  0
CIRCLE
  8
FRAME
  62
1
 10
0.010010
 20
0.100000
 30
-0.130958
 40
0.012000
 210
0.000000
 220
0.000000
 230
1.000000
  0
TEXT
  8
FRAME
  62
2
 10
0.010010
 20
0.100000
 40
0.030000
  1
0.1m
 50
0.000000
  0
POLYLINE
  8
FRAME
 66
      1
  62
1
 70
0
 40
 0.000000
 41
 0.000000
  0
VERTEX
  8
FRAME
 10
0.012513
 20
0.100000
  0
VERTEX
  8
FRAME
 10
1.200000
 20
0.082586
  0
SEQEND
  8
FRAME
  0
TEXT
  8
FRAME
  62
2
 10
0.012513
 20
0.100000
 40
0.030000
  1
0.1m
 50
0.000000
  0
TEXT
  8
FRAME
  62
2
 10
1.200000
 20
0.082586
 40
0.030000
  1
0.1m
 50
0.000000
  0
POLYLINE
  8
FRAME
 66
      1
  62
1
 70
0
 40
 0.000000
 41
 0.000000
  0
VERTEX
  8
FRAME
 10
0.012500
 20
0.700000
  0
VERTEX
  8
FRAME
 10
1.200000
 20
0.674454
  0
SEQEND
  8
FRAME
  0
TEXT
  8
FRAME
  62
2
 10
0.012500
 20
0.700000
 40
0.030000
  1
0.1m
 50
0.000000
  0
TEXT
  8
FRAME
  62
2
 10
1.200000
 20
0.674454
 40
0.030000
  1
0.1m
 50
0.000000
  0
POLYLINE
  8
FRAME
 66
      1
  62
1
 70
0
 40
 0.000000
 41
 0.000000
  0
VERTEX
  8
FRAME
 10
0.630660
 20
0.000000
  0
VERTEX
  8
FRAME
 10
0.626903
 20
0.550000
  0
SEQEND
  8
FRAME
  0
TEXT
  8
FRAME
  62
2
 10
0.630660
 20
0.000000
 40
0.030000
  1
0.2m
 50
0.000000
  0
TEXT
  8
FRAME
  62
2
 10
0.626903
 20
0.550000
 40
0.030000
  1
0.2m
 50
0.000000
  0
ENDSEC
  0
EOF
 